<mxfile host="app.diagrams.net" modified="2021-08-23T08:54:47.860Z" agent="5.0 (Macintosh; Intel Mac OS X 10_15_7) AppleWebKit/605.1.15 (KHTML, like Gecko) Version/14.1 Safari/605.1.15" etag="2cTYUqW3Mmsbx_YW3qJf" version="14.9.6" type="github">
  <diagram id="C5RBs43oDa-KdzZeNtuy" name="Page-1">
    <mxGraphModel dx="1801" dy="894" grid="1" gridSize="10" guides="1" tooltips="1" connect="1" arrows="1" fold="1" page="1" pageScale="1" pageWidth="827" pageHeight="1169" math="0" shadow="0">
      <root>
        <mxCell id="WIyWlLk6GJQsqaUBKTNV-0" />
        <mxCell id="WIyWlLk6GJQsqaUBKTNV-1" parent="WIyWlLk6GJQsqaUBKTNV-0" />
        <mxCell id="gEIxvjnvOlkVfzEeWgSE-83" value="" style="rounded=0;whiteSpace=wrap;html=1;dashed=1;" vertex="1" parent="WIyWlLk6GJQsqaUBKTNV-1">
          <mxGeometry x="-220" y="60" width="1510" height="1670" as="geometry" />
        </mxCell>
        <mxCell id="gEIxvjnvOlkVfzEeWgSE-4" value="&lt;span style=&quot;color: rgb(93 , 108 , 121) ; font-family: &amp;quot;menlo&amp;quot; ; font-size: 12px&quot;&gt;deallocating = false&lt;/span&gt;" style="edgeStyle=orthogonalEdgeStyle;rounded=0;orthogonalLoop=1;jettySize=auto;html=1;exitX=0.5;exitY=1;exitDx=0;exitDy=0;entryX=0.5;entryY=0;entryDx=0;entryDy=0;dashed=1;" edge="1" parent="WIyWlLk6GJQsqaUBKTNV-1" source="gEIxvjnvOlkVfzEeWgSE-0" target="gEIxvjnvOlkVfzEeWgSE-3">
          <mxGeometry relative="1" as="geometry" />
        </mxCell>
        <mxCell id="gEIxvjnvOlkVfzEeWgSE-0" value="&lt;p style=&quot;margin: 0px; font-stretch: normal; line-height: normal; font-family: menlo; color: rgb(15, 104, 160);&quot;&gt;objc_removeAssociatedObjects&lt;/p&gt;" style="rounded=1;whiteSpace=wrap;html=1;dashed=1;fillColor=#dae8fc;strokeColor=#6c8ebf;" vertex="1" parent="WIyWlLk6GJQsqaUBKTNV-1">
          <mxGeometry x="200" y="130" width="240" height="50" as="geometry" />
        </mxCell>
        <mxCell id="gEIxvjnvOlkVfzEeWgSE-6" value="是" style="edgeStyle=orthogonalEdgeStyle;rounded=0;orthogonalLoop=1;jettySize=auto;html=1;exitX=0.5;exitY=1;exitDx=0;exitDy=0;entryX=0.5;entryY=0;entryDx=0;entryDy=0;dashed=1;" edge="1" parent="WIyWlLk6GJQsqaUBKTNV-1" source="gEIxvjnvOlkVfzEeWgSE-3" target="gEIxvjnvOlkVfzEeWgSE-5">
          <mxGeometry relative="1" as="geometry" />
        </mxCell>
        <mxCell id="gEIxvjnvOlkVfzEeWgSE-3" value="&lt;p style=&quot;margin: 0px; font-stretch: normal; line-height: normal; font-family: menlo; color: rgb(50, 109, 116);&quot;&gt;hasAssociatedObjects&lt;/p&gt;" style="rhombus;whiteSpace=wrap;html=1;dashed=1;fillColor=#ffe6cc;strokeColor=#d79b00;" vertex="1" parent="WIyWlLk6GJQsqaUBKTNV-1">
          <mxGeometry x="225" y="230" width="190" height="50" as="geometry" />
        </mxCell>
        <mxCell id="gEIxvjnvOlkVfzEeWgSE-14" style="edgeStyle=orthogonalEdgeStyle;rounded=0;orthogonalLoop=1;jettySize=auto;html=1;exitX=0.5;exitY=1;exitDx=0;exitDy=0;entryX=0.5;entryY=0;entryDx=0;entryDy=0;dashed=1;" edge="1" parent="WIyWlLk6GJQsqaUBKTNV-1" source="gEIxvjnvOlkVfzEeWgSE-5" target="gEIxvjnvOlkVfzEeWgSE-8">
          <mxGeometry relative="1" as="geometry" />
        </mxCell>
        <mxCell id="gEIxvjnvOlkVfzEeWgSE-5" value="&lt;p style=&quot;margin: 0px; font-stretch: normal; line-height: normal; font-family: menlo; color: rgb(50, 109, 116);&quot;&gt;_object_remove_assocations&lt;/p&gt;" style="rounded=1;whiteSpace=wrap;html=1;dashed=1;fillColor=#dae8fc;strokeColor=#6c8ebf;" vertex="1" parent="WIyWlLk6GJQsqaUBKTNV-1">
          <mxGeometry x="200" y="320" width="240" height="50" as="geometry" />
        </mxCell>
        <mxCell id="gEIxvjnvOlkVfzEeWgSE-7" style="edgeStyle=orthogonalEdgeStyle;rounded=0;orthogonalLoop=1;jettySize=auto;html=1;exitX=0.5;exitY=1;exitDx=0;exitDy=0;entryX=0.5;entryY=0;entryDx=0;entryDy=0;dashed=1;" edge="1" parent="WIyWlLk6GJQsqaUBKTNV-1" source="gEIxvjnvOlkVfzEeWgSE-8" target="gEIxvjnvOlkVfzEeWgSE-9">
          <mxGeometry relative="1" as="geometry" />
        </mxCell>
        <mxCell id="gEIxvjnvOlkVfzEeWgSE-8" value="&lt;p style=&quot;margin: 0px; font-stretch: normal; line-height: normal; font-family: menlo; color: rgb(28, 70, 74);&quot;&gt;AssociationsManager&lt;/p&gt;" style="rounded=1;whiteSpace=wrap;html=1;fillColor=#dae8fc;strokeColor=#6c8ebf;dashed=1;" vertex="1" parent="WIyWlLk6GJQsqaUBKTNV-1">
          <mxGeometry x="210" y="425" width="220" height="50" as="geometry" />
        </mxCell>
        <mxCell id="gEIxvjnvOlkVfzEeWgSE-17" style="edgeStyle=orthogonalEdgeStyle;rounded=0;orthogonalLoop=1;jettySize=auto;html=1;exitX=0.5;exitY=1;exitDx=0;exitDy=0;entryX=0.5;entryY=0;entryDx=0;entryDy=0;dashed=1;" edge="1" parent="WIyWlLk6GJQsqaUBKTNV-1" source="gEIxvjnvOlkVfzEeWgSE-9" target="gEIxvjnvOlkVfzEeWgSE-16">
          <mxGeometry relative="1" as="geometry" />
        </mxCell>
        <mxCell id="gEIxvjnvOlkVfzEeWgSE-9" value="&lt;p style=&quot;margin: 0px; font-stretch: normal; line-height: normal; font-family: menlo; color: rgb(28, 70, 74);&quot;&gt;AssociationsHashMap&lt;/p&gt;" style="rounded=1;whiteSpace=wrap;html=1;fillColor=#dae8fc;strokeColor=#6c8ebf;dashed=1;" vertex="1" parent="WIyWlLk6GJQsqaUBKTNV-1">
          <mxGeometry x="210" y="522.5" width="220" height="50" as="geometry" />
        </mxCell>
        <mxCell id="gEIxvjnvOlkVfzEeWgSE-10" value="&lt;p style=&quot;margin: 0px; font-stretch: normal; line-height: normal; font-family: menlo; color: rgb(50, 109, 116);&quot;&gt;&amp;nbsp;1.AssociationsManagerLock加解锁&lt;/p&gt;&lt;span style=&quot;color: rgb(50, 109, 116); font-family: menlo;&quot;&gt;&amp;nbsp;2.管理&lt;/span&gt;&lt;span style=&quot;color: rgb(28, 70, 74); font-family: menlo;&quot;&gt;AssociationsHashMap的创建和获取&lt;/span&gt;" style="shape=note;whiteSpace=wrap;html=1;backgroundOutline=1;darkOpacity=0.05;align=left;size=19;fillColor=#d5e8d4;strokeColor=#82b366;dashed=1;" vertex="1" parent="WIyWlLk6GJQsqaUBKTNV-1">
          <mxGeometry x="-140" y="420" width="290" height="55" as="geometry" />
        </mxCell>
        <mxCell id="gEIxvjnvOlkVfzEeWgSE-11" value="&lt;p style=&quot;margin: 0px; font-stretch: normal; line-height: normal; font-family: menlo; color: rgb(50, 109, 116);&quot;&gt;全局关联对象总哈希表，单例，保存所有关联对象&lt;/p&gt;" style="shape=note;whiteSpace=wrap;html=1;backgroundOutline=1;darkOpacity=0.05;align=left;size=19;fillColor=#d5e8d4;strokeColor=#82b366;dashed=1;" vertex="1" parent="WIyWlLk6GJQsqaUBKTNV-1">
          <mxGeometry x="-140" y="517.5" width="290" height="55" as="geometry" />
        </mxCell>
        <mxCell id="gEIxvjnvOlkVfzEeWgSE-12" value="" style="curved=1;endArrow=classic;html=1;entryX=0;entryY=0;entryDx=290;entryDy=37;entryPerimeter=0;exitX=0;exitY=0.5;exitDx=0;exitDy=0;dashed=1;" edge="1" parent="WIyWlLk6GJQsqaUBKTNV-1" source="gEIxvjnvOlkVfzEeWgSE-9" target="gEIxvjnvOlkVfzEeWgSE-11">
          <mxGeometry width="50" height="50" relative="1" as="geometry">
            <mxPoint x="160" y="572.5" as="sourcePoint" />
            <mxPoint x="210" y="522.5" as="targetPoint" />
            <Array as="points">
              <mxPoint x="190" y="562.5" />
              <mxPoint x="170" y="542.5" />
            </Array>
          </mxGeometry>
        </mxCell>
        <mxCell id="gEIxvjnvOlkVfzEeWgSE-13" value="" style="curved=1;endArrow=classic;html=1;entryX=0;entryY=0;entryDx=290;entryDy=37;entryPerimeter=0;exitX=0;exitY=0.5;exitDx=0;exitDy=0;dashed=1;" edge="1" parent="WIyWlLk6GJQsqaUBKTNV-1">
          <mxGeometry width="50" height="50" relative="1" as="geometry">
            <mxPoint x="210" y="447.5" as="sourcePoint" />
            <mxPoint x="150" y="454.5" as="targetPoint" />
            <Array as="points">
              <mxPoint x="190" y="462.5" />
              <mxPoint x="170" y="442.5" />
            </Array>
          </mxGeometry>
        </mxCell>
        <mxCell id="gEIxvjnvOlkVfzEeWgSE-19" style="edgeStyle=orthogonalEdgeStyle;rounded=0;orthogonalLoop=1;jettySize=auto;html=1;exitX=0.5;exitY=1;exitDx=0;exitDy=0;entryX=0.5;entryY=0;entryDx=0;entryDy=0;dashed=1;" edge="1" parent="WIyWlLk6GJQsqaUBKTNV-1" source="gEIxvjnvOlkVfzEeWgSE-16" target="gEIxvjnvOlkVfzEeWgSE-18">
          <mxGeometry relative="1" as="geometry" />
        </mxCell>
        <mxCell id="gEIxvjnvOlkVfzEeWgSE-80" value="否" style="edgeStyle=orthogonalEdgeStyle;rounded=0;orthogonalLoop=1;jettySize=auto;html=1;exitX=1;exitY=0.5;exitDx=0;exitDy=0;entryX=1;entryY=0.5;entryDx=0;entryDy=0;dashed=1;" edge="1" parent="WIyWlLk6GJQsqaUBKTNV-1" source="gEIxvjnvOlkVfzEeWgSE-16" target="gEIxvjnvOlkVfzEeWgSE-30">
          <mxGeometry relative="1" as="geometry">
            <Array as="points">
              <mxPoint x="480" y="645" />
              <mxPoint x="480" y="1245" />
            </Array>
          </mxGeometry>
        </mxCell>
        <mxCell id="gEIxvjnvOlkVfzEeWgSE-16" value="&lt;p style=&quot;margin: 0px ; font-stretch: normal ; line-height: normal ; font-family: &amp;quot;menlo&amp;quot; ; color: rgba(0 , 0 , 0 , 0.85)&quot;&gt;&lt;span style=&quot;color: rgb(50 , 109 , 116)&quot;&gt;find&lt;/span&gt;((&lt;span style=&quot;color: rgb(28 , 70 , 74)&quot;&gt;objc_object&lt;/span&gt;&amp;nbsp;*)object)&lt;/p&gt;&lt;p style=&quot;margin: 0px ; font-stretch: normal ; line-height: normal ; font-family: &amp;quot;menlo&amp;quot; ; color: rgb(50 , 109 , 116)&quot;&gt;迭代器不为end标记&lt;/p&gt;" style="rounded=1;whiteSpace=wrap;html=1;fillColor=#dae8fc;strokeColor=#6c8ebf;dashed=1;" vertex="1" parent="WIyWlLk6GJQsqaUBKTNV-1">
          <mxGeometry x="210" y="620" width="220" height="50" as="geometry" />
        </mxCell>
        <mxCell id="gEIxvjnvOlkVfzEeWgSE-21" style="edgeStyle=orthogonalEdgeStyle;rounded=0;orthogonalLoop=1;jettySize=auto;html=1;exitX=0.5;exitY=1;exitDx=0;exitDy=0;entryX=0.5;entryY=0;entryDx=0;entryDy=0;dashed=1;" edge="1" parent="WIyWlLk6GJQsqaUBKTNV-1" source="gEIxvjnvOlkVfzEeWgSE-18" target="gEIxvjnvOlkVfzEeWgSE-20">
          <mxGeometry relative="1" as="geometry" />
        </mxCell>
        <mxCell id="gEIxvjnvOlkVfzEeWgSE-18" value="&lt;p style=&quot;margin: 0px ; font-stretch: normal ; line-height: normal ; font-family: &amp;quot;menlo&amp;quot;&quot;&gt;&lt;font color=&quot;#326d74&quot;&gt;&lt;span&gt;将object的所有关联对象交互到临时空间&lt;/span&gt;&lt;/font&gt;&lt;span style=&quot;color: rgba(0, 0, 0, 0.85); font-family: menlo;&quot;&gt;refs中&lt;/span&gt;&lt;/p&gt;" style="rounded=1;whiteSpace=wrap;html=1;fillColor=#dae8fc;strokeColor=#6c8ebf;dashed=1;" vertex="1" parent="WIyWlLk6GJQsqaUBKTNV-1">
          <mxGeometry x="210" y="720" width="220" height="50" as="geometry" />
        </mxCell>
        <mxCell id="gEIxvjnvOlkVfzEeWgSE-23" value="否" style="edgeStyle=orthogonalEdgeStyle;rounded=0;orthogonalLoop=1;jettySize=auto;html=1;exitX=0.5;exitY=1;exitDx=0;exitDy=0;entryX=0.5;entryY=0;entryDx=0;entryDy=0;dashed=1;" edge="1" parent="WIyWlLk6GJQsqaUBKTNV-1" source="gEIxvjnvOlkVfzEeWgSE-20" target="gEIxvjnvOlkVfzEeWgSE-22">
          <mxGeometry relative="1" as="geometry" />
        </mxCell>
        <mxCell id="gEIxvjnvOlkVfzEeWgSE-40" value="是" style="edgeStyle=orthogonalEdgeStyle;rounded=0;orthogonalLoop=1;jettySize=auto;html=1;exitX=1;exitY=0.5;exitDx=0;exitDy=0;entryX=1;entryY=0.5;entryDx=0;entryDy=0;dashed=1;" edge="1" parent="WIyWlLk6GJQsqaUBKTNV-1" source="gEIxvjnvOlkVfzEeWgSE-20" target="gEIxvjnvOlkVfzEeWgSE-30">
          <mxGeometry x="0.0549" relative="1" as="geometry">
            <Array as="points">
              <mxPoint x="460" y="845" />
              <mxPoint x="460" y="1245" />
            </Array>
            <mxPoint as="offset" />
          </mxGeometry>
        </mxCell>
        <mxCell id="gEIxvjnvOlkVfzEeWgSE-20" value="&lt;p style=&quot;margin: 0px; font-stretch: normal; line-height: normal; font-family: menlo; color: rgba(0, 0, 0, 0.85);&quot;&gt;deallocating&lt;/p&gt;" style="rhombus;whiteSpace=wrap;html=1;dashed=1;fillColor=#ffe6cc;strokeColor=#d79b00;" vertex="1" parent="WIyWlLk6GJQsqaUBKTNV-1">
          <mxGeometry x="225" y="820" width="190" height="50" as="geometry" />
        </mxCell>
        <mxCell id="gEIxvjnvOlkVfzEeWgSE-25" style="edgeStyle=orthogonalEdgeStyle;rounded=0;orthogonalLoop=1;jettySize=auto;html=1;exitX=0.5;exitY=1;exitDx=0;exitDy=0;entryX=0.5;entryY=0;entryDx=0;entryDy=0;dashed=1;" edge="1" parent="WIyWlLk6GJQsqaUBKTNV-1" source="gEIxvjnvOlkVfzEeWgSE-22" target="gEIxvjnvOlkVfzEeWgSE-24">
          <mxGeometry relative="1" as="geometry" />
        </mxCell>
        <mxCell id="gEIxvjnvOlkVfzEeWgSE-22" value="&lt;p style=&quot;margin: 0px ; font-stretch: normal ; line-height: normal ; font-family: &amp;quot;menlo&amp;quot;&quot;&gt;&lt;font color=&quot;#326d74&quot;&gt;&lt;span&gt;重新插入系统关联对象&lt;/span&gt;&lt;/font&gt;&lt;/p&gt;" style="rounded=1;whiteSpace=wrap;html=1;fillColor=#dae8fc;strokeColor=#6c8ebf;dashed=1;" vertex="1" parent="WIyWlLk6GJQsqaUBKTNV-1">
          <mxGeometry x="210" y="920" width="220" height="50" as="geometry" />
        </mxCell>
        <mxCell id="gEIxvjnvOlkVfzEeWgSE-27" value="是" style="edgeStyle=orthogonalEdgeStyle;rounded=0;orthogonalLoop=1;jettySize=auto;html=1;exitX=0.5;exitY=1;exitDx=0;exitDy=0;entryX=0.5;entryY=0;entryDx=0;entryDy=0;dashed=1;" edge="1" parent="WIyWlLk6GJQsqaUBKTNV-1" source="gEIxvjnvOlkVfzEeWgSE-24" target="gEIxvjnvOlkVfzEeWgSE-26">
          <mxGeometry relative="1" as="geometry" />
        </mxCell>
        <mxCell id="gEIxvjnvOlkVfzEeWgSE-24" value="&lt;p style=&quot;margin: 0px; font-stretch: normal; line-height: normal; font-family: menlo; color: rgba(0, 0, 0, 0.85);&quot;&gt;没有系统关联对象&lt;/p&gt;" style="rhombus;whiteSpace=wrap;html=1;dashed=1;fillColor=#ffe6cc;strokeColor=#d79b00;" vertex="1" parent="WIyWlLk6GJQsqaUBKTNV-1">
          <mxGeometry x="225" y="1020" width="190" height="50" as="geometry" />
        </mxCell>
        <mxCell id="gEIxvjnvOlkVfzEeWgSE-31" style="edgeStyle=orthogonalEdgeStyle;rounded=0;orthogonalLoop=1;jettySize=auto;html=1;exitX=0.5;exitY=1;exitDx=0;exitDy=0;entryX=0.5;entryY=0;entryDx=0;entryDy=0;dashed=1;" edge="1" parent="WIyWlLk6GJQsqaUBKTNV-1" source="gEIxvjnvOlkVfzEeWgSE-26" target="gEIxvjnvOlkVfzEeWgSE-30">
          <mxGeometry relative="1" as="geometry" />
        </mxCell>
        <mxCell id="gEIxvjnvOlkVfzEeWgSE-26" value="&lt;p style=&quot;margin: 0px ; font-stretch: normal ; line-height: normal ; font-family: &amp;quot;menlo&amp;quot;&quot;&gt;&lt;font color=&quot;#326d74&quot;&gt;&lt;span&gt;擦除object的整个map&lt;/span&gt;&lt;/font&gt;&lt;/p&gt;" style="rounded=1;whiteSpace=wrap;html=1;fillColor=#dae8fc;strokeColor=#6c8ebf;dashed=1;" vertex="1" parent="WIyWlLk6GJQsqaUBKTNV-1">
          <mxGeometry x="210" y="1119" width="220" height="50" as="geometry" />
        </mxCell>
        <mxCell id="gEIxvjnvOlkVfzEeWgSE-34" value="是" style="edgeStyle=orthogonalEdgeStyle;rounded=0;orthogonalLoop=1;jettySize=auto;html=1;exitX=0.5;exitY=1;exitDx=0;exitDy=0;entryX=0.5;entryY=0;entryDx=0;entryDy=0;dashed=1;" edge="1" parent="WIyWlLk6GJQsqaUBKTNV-1" source="gEIxvjnvOlkVfzEeWgSE-29" target="gEIxvjnvOlkVfzEeWgSE-33">
          <mxGeometry relative="1" as="geometry" />
        </mxCell>
        <mxCell id="gEIxvjnvOlkVfzEeWgSE-39" value="否" style="edgeStyle=orthogonalEdgeStyle;rounded=0;orthogonalLoop=1;jettySize=auto;html=1;exitX=0;exitY=0.5;exitDx=0;exitDy=0;entryX=0;entryY=0.5;entryDx=0;entryDy=0;dashed=1;" edge="1" parent="WIyWlLk6GJQsqaUBKTNV-1" source="gEIxvjnvOlkVfzEeWgSE-29" target="gEIxvjnvOlkVfzEeWgSE-35">
          <mxGeometry x="0.0847" relative="1" as="geometry">
            <Array as="points">
              <mxPoint x="170" y="1345" />
              <mxPoint x="170" y="1545" />
            </Array>
            <mxPoint as="offset" />
          </mxGeometry>
        </mxCell>
        <mxCell id="gEIxvjnvOlkVfzEeWgSE-29" value="&lt;p style=&quot;margin: 0px; font-stretch: normal; line-height: normal; font-family: menlo; color: rgba(0, 0, 0, 0.85);&quot;&gt;deallocating&lt;br&gt;&lt;/p&gt;" style="rhombus;whiteSpace=wrap;html=1;dashed=1;fillColor=#ffe6cc;strokeColor=#d79b00;" vertex="1" parent="WIyWlLk6GJQsqaUBKTNV-1">
          <mxGeometry x="225" y="1320" width="190" height="50" as="geometry" />
        </mxCell>
        <mxCell id="gEIxvjnvOlkVfzEeWgSE-32" style="edgeStyle=orthogonalEdgeStyle;rounded=0;orthogonalLoop=1;jettySize=auto;html=1;exitX=0.5;exitY=1;exitDx=0;exitDy=0;entryX=0.5;entryY=0;entryDx=0;entryDy=0;dashed=1;" edge="1" parent="WIyWlLk6GJQsqaUBKTNV-1" source="gEIxvjnvOlkVfzEeWgSE-30" target="gEIxvjnvOlkVfzEeWgSE-29">
          <mxGeometry relative="1" as="geometry" />
        </mxCell>
        <mxCell id="gEIxvjnvOlkVfzEeWgSE-30" value="&lt;p style=&quot;margin: 0px ; font-stretch: normal ; line-height: normal ; font-family: &amp;quot;menlo&amp;quot;&quot;&gt;&lt;font color=&quot;#326d74&quot;&gt;&lt;span&gt;遍历所有关联对象&lt;/span&gt;&lt;/font&gt;&lt;/p&gt;" style="rounded=1;whiteSpace=wrap;html=1;fillColor=#dae8fc;strokeColor=#6c8ebf;dashed=1;" vertex="1" parent="WIyWlLk6GJQsqaUBKTNV-1">
          <mxGeometry x="210" y="1220" width="220" height="50" as="geometry" />
        </mxCell>
        <mxCell id="gEIxvjnvOlkVfzEeWgSE-37" style="edgeStyle=orthogonalEdgeStyle;rounded=0;orthogonalLoop=1;jettySize=auto;html=1;exitX=0.5;exitY=1;exitDx=0;exitDy=0;entryX=0.5;entryY=0;entryDx=0;entryDy=0;dashed=1;" edge="1" parent="WIyWlLk6GJQsqaUBKTNV-1" source="gEIxvjnvOlkVfzEeWgSE-33" target="gEIxvjnvOlkVfzEeWgSE-35">
          <mxGeometry relative="1" as="geometry" />
        </mxCell>
        <mxCell id="gEIxvjnvOlkVfzEeWgSE-33" value="&lt;p style=&quot;margin: 0px ; font-stretch: normal ; line-height: normal ; font-family: &amp;quot;menlo&amp;quot;&quot;&gt;&lt;font color=&quot;#326d74&quot;&gt;&lt;span&gt;将系统关联对象加入临时Vector&lt;/span&gt;&lt;/font&gt;&lt;/p&gt;" style="rounded=1;whiteSpace=wrap;html=1;fillColor=#dae8fc;strokeColor=#6c8ebf;dashed=1;" vertex="1" parent="WIyWlLk6GJQsqaUBKTNV-1">
          <mxGeometry x="210" y="1420" width="220" height="50" as="geometry" />
        </mxCell>
        <mxCell id="gEIxvjnvOlkVfzEeWgSE-38" style="edgeStyle=orthogonalEdgeStyle;rounded=0;orthogonalLoop=1;jettySize=auto;html=1;exitX=0.5;exitY=1;exitDx=0;exitDy=0;entryX=0.5;entryY=0;entryDx=0;entryDy=0;dashed=1;" edge="1" parent="WIyWlLk6GJQsqaUBKTNV-1" source="gEIxvjnvOlkVfzEeWgSE-35" target="gEIxvjnvOlkVfzEeWgSE-36">
          <mxGeometry relative="1" as="geometry" />
        </mxCell>
        <mxCell id="gEIxvjnvOlkVfzEeWgSE-35" value="&lt;p style=&quot;margin: 0px ; font-stretch: normal ; line-height: normal ; font-family: &amp;quot;menlo&amp;quot;&quot;&gt;&lt;font color=&quot;#326d74&quot;&gt;&lt;span&gt;释放非系统关联对象&lt;/span&gt;&lt;/font&gt;&lt;/p&gt;" style="rounded=1;whiteSpace=wrap;html=1;fillColor=#dae8fc;strokeColor=#6c8ebf;dashed=1;" vertex="1" parent="WIyWlLk6GJQsqaUBKTNV-1">
          <mxGeometry x="210" y="1520" width="220" height="50" as="geometry" />
        </mxCell>
        <mxCell id="gEIxvjnvOlkVfzEeWgSE-36" value="&lt;p style=&quot;margin: 0px ; font-stretch: normal ; line-height: normal ; font-family: &amp;quot;menlo&amp;quot;&quot;&gt;&lt;font color=&quot;#326d74&quot;&gt;&lt;span&gt;释放临时Vector中的系统关联对象&lt;/span&gt;&lt;/font&gt;&lt;/p&gt;" style="rounded=1;whiteSpace=wrap;html=1;fillColor=#dae8fc;strokeColor=#6c8ebf;dashed=1;" vertex="1" parent="WIyWlLk6GJQsqaUBKTNV-1">
          <mxGeometry x="210" y="1620" width="220" height="50" as="geometry" />
        </mxCell>
        <mxCell id="gEIxvjnvOlkVfzEeWgSE-45" style="edgeStyle=orthogonalEdgeStyle;rounded=0;orthogonalLoop=1;jettySize=auto;html=1;exitX=0.5;exitY=1;exitDx=0;exitDy=0;entryX=0.5;entryY=0;entryDx=0;entryDy=0;dashed=1;" edge="1" parent="WIyWlLk6GJQsqaUBKTNV-1" source="gEIxvjnvOlkVfzEeWgSE-41" target="gEIxvjnvOlkVfzEeWgSE-42">
          <mxGeometry relative="1" as="geometry" />
        </mxCell>
        <mxCell id="gEIxvjnvOlkVfzEeWgSE-41" value="&lt;p style=&quot;margin: 0px; font-stretch: normal; line-height: normal; font-family: menlo; color: rgb(15, 104, 160);&quot;&gt;dealloc&lt;/p&gt;" style="rounded=1;whiteSpace=wrap;html=1;dashed=1;fillColor=#dae8fc;strokeColor=#6c8ebf;" vertex="1" parent="WIyWlLk6GJQsqaUBKTNV-1">
          <mxGeometry x="700" y="130" width="240" height="50" as="geometry" />
        </mxCell>
        <mxCell id="gEIxvjnvOlkVfzEeWgSE-46" style="edgeStyle=orthogonalEdgeStyle;rounded=0;orthogonalLoop=1;jettySize=auto;html=1;exitX=0.5;exitY=1;exitDx=0;exitDy=0;entryX=0.5;entryY=0;entryDx=0;entryDy=0;dashed=1;" edge="1" parent="WIyWlLk6GJQsqaUBKTNV-1" source="gEIxvjnvOlkVfzEeWgSE-42" target="gEIxvjnvOlkVfzEeWgSE-43">
          <mxGeometry relative="1" as="geometry" />
        </mxCell>
        <mxCell id="gEIxvjnvOlkVfzEeWgSE-42" value="&lt;p style=&quot;margin: 0px; font-stretch: normal; line-height: normal; font-family: menlo; color: rgb(50, 109, 116);&quot;&gt;_objc_rootDealloc&lt;/p&gt;" style="rounded=1;whiteSpace=wrap;html=1;dashed=1;fillColor=#dae8fc;strokeColor=#6c8ebf;" vertex="1" parent="WIyWlLk6GJQsqaUBKTNV-1">
          <mxGeometry x="700" y="230" width="240" height="50" as="geometry" />
        </mxCell>
        <mxCell id="gEIxvjnvOlkVfzEeWgSE-47" style="edgeStyle=orthogonalEdgeStyle;rounded=0;orthogonalLoop=1;jettySize=auto;html=1;exitX=0.5;exitY=1;exitDx=0;exitDy=0;entryX=0.5;entryY=0;entryDx=0;entryDy=0;dashed=1;" edge="1" parent="WIyWlLk6GJQsqaUBKTNV-1" source="gEIxvjnvOlkVfzEeWgSE-43" target="gEIxvjnvOlkVfzEeWgSE-44">
          <mxGeometry relative="1" as="geometry" />
        </mxCell>
        <mxCell id="gEIxvjnvOlkVfzEeWgSE-43" value="&lt;p style=&quot;margin: 0px; font-stretch: normal; line-height: normal; font-family: menlo; color: rgb(50, 109, 116);&quot;&gt;rootDealloc&lt;/p&gt;" style="rounded=1;whiteSpace=wrap;html=1;dashed=1;fillColor=#dae8fc;strokeColor=#6c8ebf;" vertex="1" parent="WIyWlLk6GJQsqaUBKTNV-1">
          <mxGeometry x="700" y="320" width="240" height="50" as="geometry" />
        </mxCell>
        <mxCell id="gEIxvjnvOlkVfzEeWgSE-49" value="是" style="edgeStyle=orthogonalEdgeStyle;rounded=0;orthogonalLoop=1;jettySize=auto;html=1;exitX=1;exitY=0.5;exitDx=0;exitDy=0;entryX=0;entryY=0.5;entryDx=0;entryDy=0;dashed=1;" edge="1" parent="WIyWlLk6GJQsqaUBKTNV-1" source="gEIxvjnvOlkVfzEeWgSE-44" target="gEIxvjnvOlkVfzEeWgSE-48">
          <mxGeometry relative="1" as="geometry" />
        </mxCell>
        <mxCell id="gEIxvjnvOlkVfzEeWgSE-51" value="否" style="edgeStyle=orthogonalEdgeStyle;rounded=0;orthogonalLoop=1;jettySize=auto;html=1;exitX=0.5;exitY=1;exitDx=0;exitDy=0;entryX=0.5;entryY=0;entryDx=0;entryDy=0;dashed=1;" edge="1" parent="WIyWlLk6GJQsqaUBKTNV-1" source="gEIxvjnvOlkVfzEeWgSE-44" target="gEIxvjnvOlkVfzEeWgSE-50">
          <mxGeometry relative="1" as="geometry" />
        </mxCell>
        <mxCell id="gEIxvjnvOlkVfzEeWgSE-44" value="&lt;p style=&quot;margin: 0px; font-stretch: normal; line-height: normal; font-family: menlo; color: rgb(50, 109, 116);&quot;&gt;是否能直接释放&lt;/p&gt;" style="rhombus;whiteSpace=wrap;html=1;dashed=1;fillColor=#ffe6cc;strokeColor=#d79b00;" vertex="1" parent="WIyWlLk6GJQsqaUBKTNV-1">
          <mxGeometry x="725" y="422.5" width="190" height="50" as="geometry" />
        </mxCell>
        <mxCell id="gEIxvjnvOlkVfzEeWgSE-48" value="&lt;p style=&quot;margin: 0px; font-stretch: normal; line-height: normal; font-family: menlo; color: rgb(50, 109, 116);&quot;&gt;free&lt;/p&gt;" style="rounded=1;whiteSpace=wrap;html=1;dashed=1;fillColor=#dae8fc;strokeColor=#6c8ebf;" vertex="1" parent="WIyWlLk6GJQsqaUBKTNV-1">
          <mxGeometry x="990" y="422.5" width="130" height="47.5" as="geometry" />
        </mxCell>
        <mxCell id="gEIxvjnvOlkVfzEeWgSE-56" style="edgeStyle=orthogonalEdgeStyle;rounded=0;orthogonalLoop=1;jettySize=auto;html=1;exitX=0.5;exitY=1;exitDx=0;exitDy=0;entryX=0.5;entryY=0;entryDx=0;entryDy=0;dashed=1;" edge="1" parent="WIyWlLk6GJQsqaUBKTNV-1" source="gEIxvjnvOlkVfzEeWgSE-50" target="gEIxvjnvOlkVfzEeWgSE-54">
          <mxGeometry relative="1" as="geometry" />
        </mxCell>
        <mxCell id="gEIxvjnvOlkVfzEeWgSE-50" value="&lt;p style=&quot;margin: 0px; font-stretch: normal; line-height: normal; font-family: menlo; color: rgb(50, 109, 116);&quot;&gt;object_dispose&lt;/p&gt;" style="rounded=1;whiteSpace=wrap;html=1;dashed=1;fillColor=#dae8fc;strokeColor=#6c8ebf;" vertex="1" parent="WIyWlLk6GJQsqaUBKTNV-1">
          <mxGeometry x="700" y="522.5" width="240" height="50" as="geometry" />
        </mxCell>
        <mxCell id="gEIxvjnvOlkVfzEeWgSE-52" value="&lt;span style=&quot;color: rgb(53, 53, 53); font-size: 14px; text-align: left;&quot;&gt;有弱引用&lt;br&gt;或&lt;/span&gt;&lt;span style=&quot;color: rgb(53, 53, 53); font-size: 14px; text-align: left;&quot;&gt;有关联对象&lt;br&gt;或&lt;/span&gt;&lt;span style=&quot;color: rgb(53, 53, 53); font-size: 14px; text-align: left;&quot;&gt;有&lt;/span&gt;&lt;code style=&quot;box-sizing: border-box; font-family: menlo, monaco, consolas, &amp;quot;courier new&amp;quot;, monospace; font-size: 0.87em; padding: 0.065em 0.4em; color: rgb(194, 24, 91); word-break: break-word; overflow-x: auto; border-top-left-radius: 2px; border-top-right-radius: 2px; border-bottom-right-radius: 2px; border-bottom-left-radius: 2px; text-align: left;&quot;&gt;c++&lt;/code&gt;&lt;span style=&quot;color: rgb(53, 53, 53); font-size: 14px; text-align: left;&quot;&gt;析构函数&lt;br&gt;或&lt;/span&gt;&lt;span style=&quot;color: rgb(53, 53, 53); font-size: 14px; text-align: left;&quot;&gt;有引用计数表&lt;/span&gt;" style="shape=note;whiteSpace=wrap;html=1;backgroundOutline=1;darkOpacity=0.05;dashed=1;fillColor=#fff2cc;strokeColor=#d6b656;" vertex="1" parent="WIyWlLk6GJQsqaUBKTNV-1">
          <mxGeometry x="1080" y="510" width="180" height="80" as="geometry" />
        </mxCell>
        <mxCell id="gEIxvjnvOlkVfzEeWgSE-55" style="edgeStyle=orthogonalEdgeStyle;rounded=0;orthogonalLoop=1;jettySize=auto;html=1;exitX=1;exitY=0.5;exitDx=0;exitDy=0;entryX=0.5;entryY=1;entryDx=0;entryDy=0;dashed=1;" edge="1" parent="WIyWlLk6GJQsqaUBKTNV-1" source="gEIxvjnvOlkVfzEeWgSE-54" target="gEIxvjnvOlkVfzEeWgSE-48">
          <mxGeometry relative="1" as="geometry" />
        </mxCell>
        <mxCell id="gEIxvjnvOlkVfzEeWgSE-62" style="edgeStyle=orthogonalEdgeStyle;rounded=0;orthogonalLoop=1;jettySize=auto;html=1;exitX=0.5;exitY=1;exitDx=0;exitDy=0;entryX=0.5;entryY=0;entryDx=0;entryDy=0;dashed=1;" edge="1" parent="WIyWlLk6GJQsqaUBKTNV-1" source="gEIxvjnvOlkVfzEeWgSE-54" target="gEIxvjnvOlkVfzEeWgSE-57">
          <mxGeometry relative="1" as="geometry" />
        </mxCell>
        <mxCell id="gEIxvjnvOlkVfzEeWgSE-54" value="&lt;p style=&quot;margin: 0px; font-stretch: normal; line-height: normal; font-family: menlo; color: rgb(50, 109, 116);&quot;&gt;objc_destructInstance&lt;/p&gt;" style="rounded=1;whiteSpace=wrap;html=1;dashed=1;fillColor=#dae8fc;strokeColor=#6c8ebf;" vertex="1" parent="WIyWlLk6GJQsqaUBKTNV-1">
          <mxGeometry x="700" y="620" width="240" height="50" as="geometry" />
        </mxCell>
        <mxCell id="gEIxvjnvOlkVfzEeWgSE-63" style="edgeStyle=orthogonalEdgeStyle;rounded=0;orthogonalLoop=1;jettySize=auto;html=1;exitX=0.5;exitY=1;exitDx=0;exitDy=0;entryX=0.5;entryY=0;entryDx=0;entryDy=0;dashed=1;" edge="1" parent="WIyWlLk6GJQsqaUBKTNV-1" source="gEIxvjnvOlkVfzEeWgSE-57" target="gEIxvjnvOlkVfzEeWgSE-58">
          <mxGeometry relative="1" as="geometry" />
        </mxCell>
        <mxCell id="gEIxvjnvOlkVfzEeWgSE-57" value="&lt;p style=&quot;margin: 0px; font-stretch: normal; line-height: normal; font-family: menlo; color: rgb(50, 109, 116);&quot;&gt;object_cxxDestruct&lt;/p&gt;&lt;p style=&quot;margin: 0px; font-stretch: normal; line-height: normal; font-family: menlo; color: rgb(50, 109, 116);&quot;&gt;调用C++析构函数&lt;/p&gt;" style="rounded=1;whiteSpace=wrap;html=1;dashed=1;fillColor=#dae8fc;strokeColor=#6c8ebf;" vertex="1" parent="WIyWlLk6GJQsqaUBKTNV-1">
          <mxGeometry x="700" y="720" width="240" height="50" as="geometry" />
        </mxCell>
        <mxCell id="gEIxvjnvOlkVfzEeWgSE-59" style="edgeStyle=orthogonalEdgeStyle;rounded=0;orthogonalLoop=1;jettySize=auto;html=1;exitX=0;exitY=0.5;exitDx=0;exitDy=0;entryX=1;entryY=0.5;entryDx=0;entryDy=0;dashed=1;" edge="1" parent="WIyWlLk6GJQsqaUBKTNV-1" source="gEIxvjnvOlkVfzEeWgSE-58" target="gEIxvjnvOlkVfzEeWgSE-5">
          <mxGeometry relative="1" as="geometry">
            <Array as="points">
              <mxPoint x="520" y="845" />
              <mxPoint x="520" y="345" />
            </Array>
          </mxGeometry>
        </mxCell>
        <mxCell id="gEIxvjnvOlkVfzEeWgSE-61" value="&lt;p style=&quot;margin: 0px ; font-stretch: normal ; font-size: 12px ; line-height: normal ; font-family: &amp;quot;menlo&amp;quot; ; color: rgb(93 , 108 , 121)&quot;&gt;&lt;br&gt;&lt;/p&gt;" style="edgeLabel;html=1;align=center;verticalAlign=middle;resizable=0;points=[];" vertex="1" connectable="0" parent="gEIxvjnvOlkVfzEeWgSE-59">
          <mxGeometry x="-0.6711" y="1" relative="1" as="geometry">
            <mxPoint as="offset" />
          </mxGeometry>
        </mxCell>
        <mxCell id="gEIxvjnvOlkVfzEeWgSE-82" value="&lt;span style=&quot;color: rgb(93 , 108 , 121) ; font-family: &amp;quot;menlo&amp;quot; ; font-size: 12px&quot;&gt;deallocating = true&lt;/span&gt;" style="edgeLabel;html=1;align=center;verticalAlign=middle;resizable=0;points=[];" vertex="1" connectable="0" parent="gEIxvjnvOlkVfzEeWgSE-59">
          <mxGeometry x="-0.8263" relative="1" as="geometry">
            <mxPoint x="-24" as="offset" />
          </mxGeometry>
        </mxCell>
        <mxCell id="gEIxvjnvOlkVfzEeWgSE-65" style="edgeStyle=orthogonalEdgeStyle;rounded=0;orthogonalLoop=1;jettySize=auto;html=1;exitX=0.5;exitY=1;exitDx=0;exitDy=0;entryX=0.5;entryY=0;entryDx=0;entryDy=0;dashed=1;" edge="1" parent="WIyWlLk6GJQsqaUBKTNV-1" source="gEIxvjnvOlkVfzEeWgSE-58" target="gEIxvjnvOlkVfzEeWgSE-64">
          <mxGeometry relative="1" as="geometry" />
        </mxCell>
        <mxCell id="gEIxvjnvOlkVfzEeWgSE-58" value="&lt;p style=&quot;margin: 0px; font-stretch: normal; line-height: normal; font-family: menlo; color: rgb(50, 109, 116);&quot;&gt;_object_remove_assocations&lt;/p&gt;&lt;p style=&quot;margin: 0px; font-stretch: normal; line-height: normal; font-family: menlo; color: rgb(50, 109, 116);&quot;&gt;移除关联对象&lt;/p&gt;" style="rounded=1;whiteSpace=wrap;html=1;dashed=1;fillColor=#dae8fc;strokeColor=#6c8ebf;" vertex="1" parent="WIyWlLk6GJQsqaUBKTNV-1">
          <mxGeometry x="700" y="820" width="240" height="50" as="geometry" />
        </mxCell>
        <mxCell id="gEIxvjnvOlkVfzEeWgSE-67" style="edgeStyle=orthogonalEdgeStyle;rounded=0;orthogonalLoop=1;jettySize=auto;html=1;exitX=0.5;exitY=1;exitDx=0;exitDy=0;entryX=0.5;entryY=0;entryDx=0;entryDy=0;dashed=1;" edge="1" parent="WIyWlLk6GJQsqaUBKTNV-1" source="gEIxvjnvOlkVfzEeWgSE-64" target="gEIxvjnvOlkVfzEeWgSE-66">
          <mxGeometry relative="1" as="geometry" />
        </mxCell>
        <mxCell id="gEIxvjnvOlkVfzEeWgSE-64" value="&lt;p style=&quot;margin: 0px; font-stretch: normal; line-height: normal; font-family: menlo; color: rgb(50, 109, 116);&quot;&gt;clearDeallocating&lt;/p&gt;" style="rounded=1;whiteSpace=wrap;html=1;dashed=1;fillColor=#dae8fc;strokeColor=#6c8ebf;" vertex="1" parent="WIyWlLk6GJQsqaUBKTNV-1">
          <mxGeometry x="700" y="920" width="240" height="50" as="geometry" />
        </mxCell>
        <mxCell id="gEIxvjnvOlkVfzEeWgSE-70" style="edgeStyle=orthogonalEdgeStyle;rounded=0;orthogonalLoop=1;jettySize=auto;html=1;exitX=0.5;exitY=1;exitDx=0;exitDy=0;entryX=0.5;entryY=0;entryDx=0;entryDy=0;dashed=1;" edge="1" parent="WIyWlLk6GJQsqaUBKTNV-1" source="gEIxvjnvOlkVfzEeWgSE-66" target="gEIxvjnvOlkVfzEeWgSE-68">
          <mxGeometry relative="1" as="geometry" />
        </mxCell>
        <mxCell id="gEIxvjnvOlkVfzEeWgSE-71" value="是" style="edgeLabel;html=1;align=center;verticalAlign=middle;resizable=0;points=[];" vertex="1" connectable="0" parent="gEIxvjnvOlkVfzEeWgSE-70">
          <mxGeometry x="-0.5102" y="2" relative="1" as="geometry">
            <mxPoint x="-2" y="8" as="offset" />
          </mxGeometry>
        </mxCell>
        <mxCell id="gEIxvjnvOlkVfzEeWgSE-73" style="edgeStyle=orthogonalEdgeStyle;rounded=0;orthogonalLoop=1;jettySize=auto;html=1;exitX=1;exitY=0.5;exitDx=0;exitDy=0;entryX=0;entryY=0.5;entryDx=0;entryDy=0;dashed=1;" edge="1" parent="WIyWlLk6GJQsqaUBKTNV-1" source="gEIxvjnvOlkVfzEeWgSE-66" target="gEIxvjnvOlkVfzEeWgSE-72">
          <mxGeometry relative="1" as="geometry" />
        </mxCell>
        <mxCell id="gEIxvjnvOlkVfzEeWgSE-74" value="否" style="edgeLabel;html=1;align=center;verticalAlign=middle;resizable=0;points=[];" vertex="1" connectable="0" parent="gEIxvjnvOlkVfzEeWgSE-73">
          <mxGeometry x="0.0133" relative="1" as="geometry">
            <mxPoint as="offset" />
          </mxGeometry>
        </mxCell>
        <mxCell id="gEIxvjnvOlkVfzEeWgSE-66" value="&lt;p style=&quot;margin: 0px ; font-stretch: normal ; line-height: normal ; font-family: &amp;quot;menlo&amp;quot; ; color: rgb(50 , 109 , 116)&quot;&gt;&lt;span style=&quot;font-family: menlo; color: rgba(0, 0, 0, 0.85);&quot;&gt;!&lt;/span&gt;&lt;span style=&quot;font-family: menlo;&quot;&gt;isa&lt;/span&gt;&lt;span style=&quot;font-family: menlo; color: rgba(0, 0, 0, 0.85);&quot;&gt;.&lt;/span&gt;&lt;span style=&quot;font-family: menlo;&quot;&gt;nonpointer&lt;/span&gt;&lt;/p&gt;&lt;p style=&quot;margin: 0px ; font-stretch: normal ; line-height: normal ; font-family: &amp;quot;menlo&amp;quot; ; color: rgb(50 , 109 , 116)&quot;&gt;isa是否纯指针&lt;/p&gt;" style="rhombus;whiteSpace=wrap;html=1;dashed=1;fillColor=#ffe6cc;strokeColor=#d79b00;" vertex="1" parent="WIyWlLk6GJQsqaUBKTNV-1">
          <mxGeometry x="725" y="1020" width="190" height="50" as="geometry" />
        </mxCell>
        <mxCell id="gEIxvjnvOlkVfzEeWgSE-77" style="edgeStyle=orthogonalEdgeStyle;rounded=0;orthogonalLoop=1;jettySize=auto;html=1;exitX=0.5;exitY=1;exitDx=0;exitDy=0;entryX=0.5;entryY=0;entryDx=0;entryDy=0;dashed=1;" edge="1" parent="WIyWlLk6GJQsqaUBKTNV-1" source="gEIxvjnvOlkVfzEeWgSE-68" target="gEIxvjnvOlkVfzEeWgSE-75">
          <mxGeometry relative="1" as="geometry">
            <Array as="points">
              <mxPoint x="820" y="1190" />
              <mxPoint x="960" y="1190" />
            </Array>
          </mxGeometry>
        </mxCell>
        <mxCell id="gEIxvjnvOlkVfzEeWgSE-68" value="&lt;p style=&quot;margin: 0px; font-stretch: normal; line-height: normal; font-family: menlo; color: rgb(50, 109, 116);&quot;&gt;sidetable_clearDeallocating&lt;/p&gt;" style="rounded=1;whiteSpace=wrap;html=1;dashed=1;fillColor=#dae8fc;strokeColor=#6c8ebf;" vertex="1" parent="WIyWlLk6GJQsqaUBKTNV-1">
          <mxGeometry x="700" y="1119" width="240" height="50" as="geometry" />
        </mxCell>
        <mxCell id="gEIxvjnvOlkVfzEeWgSE-78" style="edgeStyle=orthogonalEdgeStyle;rounded=0;orthogonalLoop=1;jettySize=auto;html=1;exitX=0.5;exitY=1;exitDx=0;exitDy=0;entryX=0.5;entryY=0;entryDx=0;entryDy=0;dashed=1;" edge="1" parent="WIyWlLk6GJQsqaUBKTNV-1" source="gEIxvjnvOlkVfzEeWgSE-72" target="gEIxvjnvOlkVfzEeWgSE-75">
          <mxGeometry relative="1" as="geometry">
            <Array as="points">
              <mxPoint x="1110" y="1190" />
              <mxPoint x="960" y="1190" />
            </Array>
          </mxGeometry>
        </mxCell>
        <mxCell id="gEIxvjnvOlkVfzEeWgSE-72" value="&lt;p style=&quot;margin: 0px; font-stretch: normal; line-height: normal; font-family: menlo; color: rgb(50, 109, 116);&quot;&gt;clearDeallocating_slow&lt;/p&gt;" style="rounded=1;whiteSpace=wrap;html=1;dashed=1;fillColor=#dae8fc;strokeColor=#6c8ebf;" vertex="1" parent="WIyWlLk6GJQsqaUBKTNV-1">
          <mxGeometry x="990" y="1020" width="240" height="50" as="geometry" />
        </mxCell>
        <mxCell id="gEIxvjnvOlkVfzEeWgSE-79" style="edgeStyle=orthogonalEdgeStyle;rounded=0;orthogonalLoop=1;jettySize=auto;html=1;exitX=0.5;exitY=1;exitDx=0;exitDy=0;entryX=0.5;entryY=0;entryDx=0;entryDy=0;dashed=1;" edge="1" parent="WIyWlLk6GJQsqaUBKTNV-1" source="gEIxvjnvOlkVfzEeWgSE-75" target="gEIxvjnvOlkVfzEeWgSE-76">
          <mxGeometry relative="1" as="geometry" />
        </mxCell>
        <mxCell id="gEIxvjnvOlkVfzEeWgSE-75" value="&lt;p style=&quot;margin: 0px; font-stretch: normal; line-height: normal; font-family: menlo; color: rgb(50, 109, 116);&quot;&gt;weak_clear_no_lock&lt;/p&gt;&lt;p style=&quot;margin: 0px; font-stretch: normal; line-height: normal; font-family: menlo; color: rgb(50, 109, 116);&quot;&gt;清除弱引用表&lt;/p&gt;" style="rounded=1;whiteSpace=wrap;html=1;dashed=1;fillColor=#dae8fc;strokeColor=#6c8ebf;" vertex="1" parent="WIyWlLk6GJQsqaUBKTNV-1">
          <mxGeometry x="840" y="1220" width="240" height="50" as="geometry" />
        </mxCell>
        <mxCell id="gEIxvjnvOlkVfzEeWgSE-76" value="&lt;p style=&quot;margin: 0px; font-stretch: normal; line-height: normal; font-family: menlo; color: rgb(50, 109, 116);&quot;&gt;&lt;span style=&quot;color: rgba(0 , 0 , 0 , 0.85)&quot;&gt;table.&lt;/span&gt;refcnts&lt;span style=&quot;color: rgba(0 , 0 , 0 , 0.85)&quot;&gt;.&lt;/span&gt;erase&lt;/p&gt;&lt;p style=&quot;margin: 0px; font-stretch: normal; line-height: normal; font-family: menlo; color: rgb(50, 109, 116);&quot;&gt;擦除引用计数表&lt;/p&gt;" style="rounded=1;whiteSpace=wrap;html=1;dashed=1;fillColor=#dae8fc;strokeColor=#6c8ebf;" vertex="1" parent="WIyWlLk6GJQsqaUBKTNV-1">
          <mxGeometry x="840" y="1320" width="240" height="50" as="geometry" />
        </mxCell>
        <mxCell id="gEIxvjnvOlkVfzEeWgSE-81" value="" style="curved=1;endArrow=classic;html=1;dashed=1;entryX=1;entryY=0.5;entryDx=0;entryDy=0;exitX=0;exitY=0.5;exitDx=0;exitDy=0;exitPerimeter=0;" edge="1" parent="WIyWlLk6GJQsqaUBKTNV-1" source="gEIxvjnvOlkVfzEeWgSE-52" target="gEIxvjnvOlkVfzEeWgSE-50">
          <mxGeometry width="50" height="50" relative="1" as="geometry">
            <mxPoint x="990" y="600" as="sourcePoint" />
            <mxPoint x="1040" y="550" as="targetPoint" />
            <Array as="points">
              <mxPoint x="1040" y="570" />
              <mxPoint x="990" y="540" />
            </Array>
          </mxGeometry>
        </mxCell>
        <mxCell id="gEIxvjnvOlkVfzEeWgSE-84" value="关联对象移除流程" style="shape=note;whiteSpace=wrap;html=1;backgroundOutline=1;darkOpacity=0.05;dashed=1;labelBackgroundColor=none;fillColor=#fff2cc;strokeColor=#d6b656;" vertex="1" parent="WIyWlLk6GJQsqaUBKTNV-1">
          <mxGeometry x="-220" y="60" width="180" height="60" as="geometry" />
        </mxCell>
      </root>
    </mxGraphModel>
  </diagram>
</mxfile>
